<svg width="120" height="40" viewBox="0 0 120 40" fill="none" xmlns="http://www.w3.org/2000/svg">
  <path d="M20 10C14.4772 10 10 14.4772 10 20C10 25.5228 14.4772 30 20 30C25.5228 30 30 25.5228 30 20C30 14.4772 25.5228 10 20 10ZM20 28C15.5817 28 12 24.4183 12 20C12 15.5817 15.5817 12 20 12C24.4183 12 28 15.5817 28 20C28 24.4183 24.4183 28 20 28Z" fill="#4F46E5"/>
  <path d="M20 14C17.7909 14 16 15.7909 16 18C16 20.2091 17.7909 22 20 22C22.2091 22 24 20.2091 24 18C24 15.7909 22.2091 14 20 14Z" fill="#4F46E5"/>
  <path d="M40.9 25V15H43.5L47.9 21.7V15H50.3V25H47.7L43.3 18.3V25H40.9Z" fill="#111827"/>
  <path d="M52.4 25V15H54.8V25H52.4Z" fill="#111827"/>
  <path d="M57.1 25V15H59.5V22.8H64.3V25H57.1Z" fill="#111827"/>
  <path d="M65.8 25V15H73V17.2H68.2V19H72.6V21.2H68.2V22.8H73V25H65.8Z" fill="#111827"/>
  <path d="M74.5 25V15H76.9V22.8H81.7V25H74.5Z" fill="#111827"/>
  <path d="M83.2 25V15H85.6V25H83.2Z" fill="#111827"/>
  <path d="M87.9 25V15H90.5L94.9 21.7V15H97.3V25H94.7L90.3 18.3V25H87.9Z" fill="#111827"/>
  <path d="M99.4 25V15H106.6V17.2H101.8V19H106.2V21.2H101.8V22.8H106.6V25H99.4Z" fill="#111827"/>
  <path d="M108.1 25V15H110.5V22.8H115.3V25H108.1Z" fill="#111827"/>
</svg> 